# This file uses centimeters as units for non-parametric coordinates.

mtllib Diamond Pointer.mtl
g default
v -19.999990 0.000000 20.000000
v 20.000008 0.000000 20.000000
v 20.000008 0.000000 -20.000000
v -19.999990 0.000000 -20.000000
v 0.000008 50.000000 0.000000
v 20.000010 0.000002 20.000000
v -19.999989 -0.000002 20.000000
v -19.999989 -0.000002 -20.000000
v 20.000010 0.000002 -20.000000
v 0.000013 -50.000000 0.000000
vt 0.750000 0.500000
vt 0.500000 0.500000
vt 0.625000 0.375000
vt 0.500000 0.500000
vt 0.750000 0.500000
vt 0.625000 0.625000
vt 1.000000 0.500000
vt 0.875000 0.625000
vt 0.000000 0.500000
vt 0.250000 0.500000
vt 0.125000 0.625000
vt 0.375000 0.625000
vt 0.250000 0.500000
vt 0.375000 0.375000
vt 0.000000 0.500000
vt 0.125000 0.375000
vt 1.000000 0.500000
vt 0.875000 0.375000
vn 0.928477 -0.371391 0.000000
vn 0.928477 -0.371391 0.000000
vn 0.928477 -0.371391 0.000000
vn 0.928477 0.371391 0.000000
vn 0.928477 0.371391 0.000000
vn 0.928477 0.371391 0.000000
vn 0.000000 0.371391 -0.928477
vn 0.000000 0.371391 -0.928477
vn 0.000000 0.371391 -0.928477
vn -0.928477 0.371391 0.000000
vn -0.928477 0.371391 0.000000
vn -0.928477 0.371391 0.000000
vn 0.000000 0.371391 0.928477
vn 0.000000 0.371391 0.928477
vn 0.000000 0.371391 0.928477
vn 0.000000 -0.371391 0.928477
vn 0.000000 -0.371391 0.928477
vn 0.000000 -0.371391 0.928477
vn -0.928477 -0.371391 0.000000
vn -0.928477 -0.371391 0.000000
vn -0.928477 -0.371391 0.000000
vn 0.000000 -0.371391 -0.928477
vn 0.000000 -0.371391 -0.928477
vn 0.000000 -0.371391 -0.928477
s off
g Diamond_Pointer:Diamond
usemtl initialShadingGroup
f 9/1/1 6/2/2 10/3/3
f 2/4/4 3/5/5 5/6/6
f 3/5/7 4/7/8 5/8/9
f 4/9/10 1/10/11 5/11/12
f 1/10/13 2/4/14 5/12/15
f 6/2/16 7/13/17 10/14/18
f 7/13/19 8/15/20 10/16/21
f 8/17/22 9/1/23 10/18/24
